<?xml version="1.0" encoding="UTF-8" standalone="no"?>
<svg width="105px" height="143px" viewBox="0 0 105 143" version="1.1" xmlns="http://www.w3.org/2000/svg" xmlns:xlink="http://www.w3.org/1999/xlink">
    <!-- Generator: Sketch 42 (36781) - http://www.bohemiancoding.com/sketch -->
    <title>TM_logo</title>
    <desc>Created with Sketch.</desc>
    <defs>
        <path d="M35.4098213,136.428045 C35.4098213,124.235994 38.0685074,111.752427 35.4098213,99.8518919 C35.3885699,99.7567684 23.7875328,94.1600176 22.2665922,93.2371695 C3.87233815,82.0762453 -9.4733655,49.9958931 8.52252966,32.0576716 C11.8153534,30.0530182 14.5600542,29.3919112 17.0911742,30.2716842 C19.4829522,31.1030245 22.1242905,32.89084 26.3966789,34.7700644 C26.6348762,26.3442537 20.6225356,8.46954966 26.6348762,3.93574351 L31.2154037,1.02385222 C36.5572289,-0.436711037 45.3893559,-0.987426614 45.5220609,3.93574351 L46.4823213,6.81927194 C46.5850094,10.628857 46.2231795,14.5925061 45.8338988,18.5850848 C48.3260672,18.2937058 50.3684556,16.5497937 52.5404987,15.9081031 C54.7125418,15.2664124 60.7439585,14.7315068 64.2163844,15.9081031 C68.0764594,17.2160502 69.8676331,22.2179058 70.5401718,28.3062866 C85.8738129,26.491126 94.9476512,22.7897982 91.6413416,41.5533716 C105.060849,41.8076997 104.66815,55.5952436 99.8310218,66.9004455 C99.8545609,75.3228018 100.756571,83.5336972 99.8545609,92.1837335 C99.3159746,97.3486303 87.3273959,100.113659 87.1244047,104.103068 C86.528805,115.80845 86.4878074,128.904266 86.1695088,140.620399" id="path-1"></path>
        <rect id="path-3" x="65.92" y="0" width="208.746667" height="208.07767"></rect>
        <mask id="mask-4" maskContentUnits="userSpaceOnUse" maskUnits="objectBoundingBox" x="0" y="0" width="208.746667" height="208.07767" fill="white">
            <use xlink:href="#path-3"></use>
        </mask>
        <linearGradient x1="50%" y1="-1.11022302e-14%" x2="50%" y2="100%" id="linearGradient-5">
            <stop stop-color="#F5515F" offset="0%"></stop>
            <stop stop-color="#8E051A" offset="100%"></stop>
        </linearGradient>
    </defs>
    <g id="Page-1" stroke="none" stroke-width="1" fill="none" fill-rule="evenodd">
        <g id="152---iPad" transform="translate(-20.000000, -4.000000)">
            <g id="TM_logo" transform="translate(21.000000, 5.000000)">
                <g id="Group-2">
                    <mask id="mask-2" fill="white">
                        <use xlink:href="#path-1"></use>
                    </mask>
                    <g id="Mask"></g>
                    <g opacity="0.699999988" mask="url(#mask-2)">
                        <g transform="translate(-129.093333, -30.116505)">
                            <use id="Rectangle" stroke="#979797" mask="url(#mask-4)" stroke-width="2" fill="#000000" xlink:href="#path-3"></use>
                            <text id="11010110101110111010" stroke="none" fill="url(#linearGradient-5)" font-family="AndaleMono, Andale Mono" font-size="10" font-weight="normal">
                                <tspan x="64.5466667" y="9">110101101011101110101011010100111101110</tspan>
                            </text>
                            <text id="11010110101110111010-copy" stroke="none" fill="url(#linearGradient-5)" font-family="AndaleMono, Andale Mono" font-size="10" font-weight="normal">
                                <tspan x="31.5866667" y="21.3203883">110101101011101110101011010100111101110</tspan>
                            </text>
                            <text id="11010110101110111010-copy-2" stroke="none" fill="url(#linearGradient-5)" font-family="AndaleMono, Andale Mono" font-size="10" font-weight="normal">
                                <tspan x="15.1066667" y="33.6407767">110101101011101110101011010100111101110</tspan>
                            </text>
                            <text id="11010110101110111010-copy-3" stroke="none" fill="url(#linearGradient-5)" font-family="AndaleMono, Andale Mono" font-size="10" font-weight="normal">
                                <tspan x="39.8266667" y="45.961165">110101101011101110101011010100111101110</tspan>
                            </text>
                            <text id="11010110101110111010-copy-4" stroke="none" fill="url(#linearGradient-5)" font-family="AndaleMono, Andale Mono" font-size="10" font-weight="normal">
                                <tspan x="0" y="58.2815534">110101101011101110101011010100111101110</tspan>
                            </text>
                            <text id="11010110101110111010-copy-5" stroke="none" fill="url(#linearGradient-5)" font-family="AndaleMono, Andale Mono" font-size="10" font-weight="normal">
                                <tspan x="41.2" y="70.6019417">110101101011101110101011010100111101110</tspan>
                            </text>
                            <text id="11010110101110111010-copy-11" stroke="none" fill="url(#linearGradient-5)" font-family="AndaleMono, Andale Mono" font-size="10" font-weight="normal">
                                <tspan x="65.92" y="82.9223301">110101101011101110101011010100111101110</tspan>
                            </text>
                            <text id="11010110101110111010-copy-10" stroke="none" fill="url(#linearGradient-5)" font-family="AndaleMono, Andale Mono" font-size="10" font-weight="normal">
                                <tspan x="32.96" y="95.2427184">110101101011101110101011010100111101110</tspan>
                            </text>
                            <text id="11010110101110111010-copy-9" stroke="none" fill="url(#linearGradient-5)" font-family="AndaleMono, Andale Mono" font-size="10" font-weight="normal">
                                <tspan x="16.48" y="107.563107">110101101011101110101011010100111101110</tspan>
                            </text>
                            <text id="11010110101110111010-copy-8" stroke="none" fill="url(#linearGradient-5)" font-family="AndaleMono, Andale Mono" font-size="10" font-weight="normal">
                                <tspan x="41.2" y="119.883495">110101101011101110101011010100111101110</tspan>
                            </text>
                            <text id="11010110101110111010-copy-7" stroke="none" fill="url(#linearGradient-5)" font-family="AndaleMono, Andale Mono" font-size="10" font-weight="normal">
                                <tspan x="1.37333333" y="132.203883">110101101011101110101011010100111101110</tspan>
                            </text>
                            <text id="11010110101110111010-copy-6" stroke="none" fill="url(#linearGradient-5)" font-family="AndaleMono, Andale Mono" font-size="10" font-weight="normal">
                                <tspan x="42.5733333" y="144.524272">110101101011101110101011010100111101110</tspan>
                            </text>
                            <text id="11010110101110111010-copy-15" stroke="none" fill="url(#linearGradient-5)" font-family="AndaleMono, Andale Mono" font-size="10" font-weight="normal">
                                <tspan x="17.8533333" y="156.84466">110101101011101110101011010100111101110</tspan>
                            </text>
                            <text id="11010110101110111010-copy-14" stroke="none" fill="url(#linearGradient-5)" font-family="AndaleMono, Andale Mono" font-size="10" font-weight="normal">
                                <tspan x="42.5733333" y="169.165049">110101101011101110101011010100111101110</tspan>
                            </text>
                            <text id="11010110101110111010-copy-13" stroke="none" fill="url(#linearGradient-5)" font-family="AndaleMono, Andale Mono" font-size="10" font-weight="normal">
                                <tspan x="2.74666667" y="181.485437">110101101011101110101011010100111101110</tspan>
                            </text>
                            <text id="11010110101110111010-copy-12" stroke="none" fill="url(#linearGradient-5)" font-family="AndaleMono, Andale Mono" font-size="10" font-weight="normal">
                                <tspan x="43.9466667" y="193.805825">110101101011101110101011010100111101110</tspan>
                            </text>
                            <text id="11010110101110111010-copy-16" stroke="none" fill="url(#linearGradient-5)" font-family="AndaleMono, Andale Mono" font-size="10" font-weight="normal">
                                <tspan x="45.32" y="204.757282">110101101011101110101011010100111101110</tspan>
                            </text>
                        </g>
                    </g>
                </g>
                <g id="Group-Copy" opacity="0.699999988" stroke="#979797">
                    <path d="M35.7874178,136.683802 C35.7874178,124.544543 38.4111211,112.115029 35.7874178,100.266024 C35.766446,100.171312 24.3180541,94.5987952 22.8171258,93.679943 C4.66490147,82.5673455 -8.50520082,50.6259011 9.25390625,32.765352" id="Path-2" stroke-width="2"></path>
                    <path d="M8.94146557,33.0472736 C12.5034034,30.7693788 15.2119897,30.1111344 17.7098054,30.987098 C20.6770966,32.0277028 24.0336178,34.5734321 30.4881271,36.9129324 C52.8274939,45.0100551 78.2323844,48.7832869 32.3727899,56.8468742" id="Path-3" stroke-width="2"></path>
                    <path d="M27.1279324,34.9458949 C27.1279324,27.0766732 21.1947016,9.27936655 27.1279324,4.76519176 L31.6481898,1.86590893 C36.9197279,0.411669915 45.6356427,-0.136661067 45.7666016,4.76519176 L46.714227,7.63623452 C47.0131147,18.8237423 43.324226,31.3456842 46.714227,42.0052769" id="Path-4" stroke-width="2"></path>
                    <path d="M46.6683011,19.3966023 C48.533713,19.0609842 50.5492279,17.3246232 52.6926915,16.685711 C54.8361551,16.0467989 60.788211,15.5142094 64.2149471,16.685711 C75.6450837,20.5933428 68.6927682,57.6154263 68.6927682,57.6154263" id="Path-5" stroke-width="2"></path>
                    <path d="M46.8201069,54.3764284 C50.1064586,76.069386 61.81931,75.1310115 68.7584293,57.2834616" id="Path-6" stroke-width="2"></path>
                    <path d="M71.2373777,28.5654212 C86.3554618,27.1510547 95.4849307,23.1364027 90.6491057,45.4157382 C88.171623,56.8298541 85.2060204,68.6158777 78.848787,78.3940597 C71.0843333,90.3367141 64.4365592,68.6566047 64.4365592,66.0650292" id="Path-7" stroke-width="2"></path>
                    <path d="M91.9667501,42.4731625 C117.36749,42.4731625 89.7933254,98.6613957 80.1002885,76.8959486" id="Path-8" stroke-width="2"></path>
                    <path d="M99.3842002,67.184161 C99.3842002,75.8431445 100.274342,84.0184867 99.3842002,92.6310684 C98.8527006,97.7736012 87.0218664,100.526658 86.8215461,104.498792 C86.2337832,116.15349 86.1933251,129.192601 85.8792146,140.858003" id="Path-9" stroke-width="2"></path>
                    <path d="M85.8050987,140.755512 C53.7360519,139.328617 35.9561639,136.651524 35.9561639,136.651524" id="Path-10" stroke-width="2"></path>
                </g>
            </g>
        </g>
    </g>
</svg>